<svg id="Layer_1" data-name="Layer 1" xmlns="http://www.w3.org/2000/svg" width="202.9" height="43.95" viewBox="0 0 202.9 43.95"><defs><style>.cls-1{fill:#fff;}.cls-2{fill:#7f1710;}</style></defs><title>wawok</title><polygon class="cls-1" points="169.78 4.38 178.78 4.38 178.78 21.48 192.82 4.38 202.9 4.38 188.5 21.84 202.54 41.82 192.1 41.82 183.1 27.96 178.78 32.28 178.78 41.82 169.78 41.82 169.78 4.38"/><path class="cls-1" d="M152.8,4.38c-10.64,0-19.26,8.38-19.26,18.72s8.62,18.72,19.26,18.72,19.26-8.38,19.26-18.72S163.44,4.38,152.8,4.38Zm0,30.24c-6.66,0-12.06-5.08-12.06-11.34s5.4-11.34,12.06-11.34S164.86,17,164.86,23.28,159.46,34.62,152.8,34.62Z" transform="translate(-3.8)"/><path class="cls-1" d="M85,4.56,103.74,44l6.12-13.44L116.7,44,135.36,3.63h-9.6l-9.6,22.08-1-4.8,6.72-17.28h-9.6l-8.64,22.08L94.08,3.63c-2.88-1.44-7.68,0-7.68,0" transform="translate(-3.8)"/><path class="cls-2" d="M77.76,1.71s3.36-3.84,6.72,0L81.12,14.19H76.8Z" transform="translate(-3.8)"/><path class="cls-2" d="M63.4,3.63,45.16,44h9.12l2.4-5.76H70.12L74,44h7.68ZM58.6,30.51l4.8-9.6,5.76,9.6Z" transform="translate(-3.8)"/><polygon class="cls-2" points="0 3.63 8.64 3.63 18.24 25.71 27.84 3.63 37.44 3.63 29.76 20.91 31.68 25.71 41.28 3.63 50.88 3.63 32.64 43.95 25.44 31.47 19.2 43.95 0 3.63"/></svg>