<svg id="Layer_1" data-name="Layer 1" xmlns="http://www.w3.org/2000/svg" width="295.92" height="296.76" viewBox="0 0 295.92 296.76"><defs><style>.cls-1{fill:#7f1710;}.cls-2,.cls-3{fill:none;stroke:#fff;stroke-miterlimit:10;}.cls-2{stroke-width:3px;}.cls-4{fill:#fff;}</style></defs><title>WoWokLogo</title><ellipse class="cls-1" cx="147.96" cy="148.38" rx="147.96" ry="148.38"/><path class="cls-2" d="M57.88,230.76s73.12-38.59,171.54-.36" transform="translate(0.2)"/><path class="cls-2" d="M50.68,206.36s95.16-43.13,191.64,0" transform="translate(0.2)"/><circle class="cls-3" cx="146.86" cy="148.22" r="137.78"/><polygon class="cls-4" points="211.74 137.43 220.74 137.43 220.74 154.53 234.78 137.43 244.86 137.43 230.46 154.89 244.5 174.87 234.06 174.87 225.06 161.01 220.74 165.33 220.74 174.87 211.74 174.87 211.74 137.43"/><path class="cls-4" d="M190.76,137.43c-10.64,0-19.26,8.38-19.26,18.72s8.62,18.72,19.26,18.72S210,166.49,210,156.15,201.4,137.43,190.76,137.43Zm0,30.24c-6.66,0-12.06-5.08-12.06-11.34S184.1,145,190.76,145s12.06,5.08,12.06,11.34S197.42,167.67,190.76,167.67Z" transform="translate(0.2)"/><path class="cls-4" d="M123,137.61,141.7,177l6.12-13.44L154.66,177l18.66-40.32h-9.6l-9.6,22.08-1-4.8,6.72-17.28h-9.6l-8.64,22.08L132,136.68c-2.88-1.44-7.68,0-7.68,0" transform="translate(0.2)"/><path class="cls-4" d="M115.72,134.76s3.36-3.84,6.72,0l-3.36,12.48h-4.32Z" transform="translate(0.2)"/><path class="cls-4" d="M101.36,136.68,83.12,177h9.12l2.4-5.76h13.44l3.84,5.76h7.68Zm-4.8,26.88,4.8-9.6,5.76,9.6Z" transform="translate(0.2)"/><polygon class="cls-4" points="41.96 136.68 50.6 136.68 60.2 158.76 69.8 136.68 79.4 136.68 71.72 153.96 73.64 158.76 83.24 136.68 92.84 136.68 74.6 177 67.4 164.52 61.16 177 41.96 136.68"/><path class="cls-4" d="M150.13,206.2a12,12,0,0,1-4.21.81c-4.52.19-8.28-2-8.92-6.66-.62-4.43,2.7-7.8,8.17-8a10.94,10.94,0,0,1,4.23.51c-.18.6-.28.9-.46,1.51a9.45,9.45,0,0,0-3.56-.48c-4.1.16-6.56,2.51-6.09,6.23.43,3.48,3,5.51,6.94,5.35a9.6,9.6,0,0,0,3.38-.7Z" transform="translate(0.2)"/><path class="cls-4" d="M154.48,192.4c.08,3.37.12,5.06.21,8.43.08,3.19,1.72,4.54,3.89,4.6,2.41.06,4-1.25,4.07-4.39.09-3.37.13-5,.22-8.42l2.3.13c-.13,3.31-.2,5-.34,8.28-.18,4.36-2.84,6-6.32,5.89-3.29-.08-5.83-1.72-6-6.13-.13-3.36-.19-5-.32-8.39Z" transform="translate(0.2)"/><path class="cls-4" d="M171.38,193.2c-.45,5.67-.68,8.5-1.13,14.16l-2.07-.17c.37-5.67.56-8.51.93-14.18Z" transform="translate(0.2)"/><path class="cls-4" d="M173.8,205.47a8.85,8.85,0,0,0,3.64,1.36c2.13.27,3.51-.52,3.73-1.94s-.58-2.24-2.72-3.22c-2.57-1.19-4.2-2.53-4-4.53.22-2.2,2.66-3.61,6.06-3.15a9.19,9.19,0,0,1,3.75,1.24l-.85,1.38a8,8,0,0,0-3.19-1.13c-2.36-.32-3.4.74-3.51,1.7-.15,1.32.82,2.08,3,3.15,2.72,1.3,3.94,2.68,3.6,4.74s-2.47,3.72-6.23,3.24a9.66,9.66,0,0,1-4-1.37Z" transform="translate(0.2)"/><path class="cls-4" d="M190.34,195.79l-2.78,13.93-2.05-.36c1-5.59,1.55-8.38,2.59-14C189,195.54,189.44,195.62,190.34,195.79Z" transform="translate(0.2)"/><path class="cls-4" d="M191.11,210.42c1.26-5.55,1.88-8.33,3.13-13.87l2.43.51c1.54,3.28,2.25,4.92,3.58,8.21a30.91,30.91,0,0,1,1.6,5.18h.05a56.94,56.94,0,0,1,1.44-5.67l1.7-5.71c.83.21,1.25.32,2.08.55-1.7,5.44-2.55,8.16-4.26,13.6l-2-.54c-1.15-3.29-1.78-4.93-3.14-8.21a55.66,55.66,0,0,1-2-5.31h-.08c-.29,1.77-.63,3.44-1.18,5.74s-.85,3.54-1.42,5.91C192.27,210.65,191.88,210.57,191.11,210.42Z" transform="translate(0.2)"/><path class="cls-4" d="M216.8,210.53c-2.47-.85-3.72-1.26-6.22-2-.69,1.93-1,2.9-1.72,4.84,2.7.83,4,1.27,6.7,2.2-.24.57-.35.86-.59,1.43-3.42-1.19-5.14-1.75-8.62-2.77,1.84-5.4,2.75-8.1,4.59-13.5,3.66,1.07,5.47,1.66,9.08,2.9l-.59,1.44c-2.71-.94-4.08-1.39-6.83-2.23-.6,1.7-.9,2.55-1.51,4.25,2.53.77,3.79,1.18,6.28,2Z" transform="translate(0.2)"/><path class="cls-4" d="M70,214.23c0,2,0,3,0,5l-2,.7c0-6.3,0-9.47.35-15.84l2.56-.81c4.1,5,6.08,7.49,9.87,12.6l-2.12.61c-1.21-1.59-1.82-2.39-3.06-4C73.31,213.15,72.2,213.5,70,214.23Zm4.67-3.06c-1.14-1.45-1.72-2.16-2.89-3.59-.66-.82-1.18-1.58-1.7-2.32l0,0c0,.91.07,1.85,0,2.81-.08,1.84-.11,2.75-.16,4.59C71.81,212.05,72.75,211.75,74.66,211.17Z" transform="translate(0.2)"/><path class="cls-4" d="M82.08,213A8.17,8.17,0,0,0,86,213c2.06-.53,3-1.83,2.67-3.28s-1.41-2-3.75-2.12c-2.8-.2-4.81-.91-5.39-2.93-.64-2.23,1-4.49,4.28-5.31a8.58,8.58,0,0,1,3.88-.19c-.09.66-.14,1-.23,1.66a7.35,7.35,0,0,0-3.32.09c-2.27.57-2.8,2-2.53,3,.36,1.34,1.54,1.73,4,1.93,3,.26,4.65,1.13,5.15,3.26s-.8,4.56-4.46,5.5a9.12,9.12,0,0,1-4.21.15C82,214,82.05,213.69,82.08,213Z" transform="translate(0.2)"/><path class="cls-4" d="M93.34,197.39c1.22,5.83,1.83,8.74,3.06,14.57l-2,.43-3.2-14.53Z" transform="translate(0.2)"/><path class="cls-4" d="M101.67,206.16c-.34,2-.51,3-.82,4.91l-2.1.41c1-6.27,1.56-9.4,2.88-15.68l2.65-.44c3.23,5.51,4.77,8.29,7.69,13.9l-2.19.31c-.93-1.75-1.41-2.63-2.37-4.38C105.11,205.55,104,205.74,101.67,206.16Zm5.08-2.38c-.89-1.6-1.34-2.39-2.26-4-.53-.9-.91-1.73-1.3-2.54h0c-.11.92-.24,1.86-.41,2.8-.37,1.82-.55,2.72-.89,4.53C103.8,204.25,104.78,204.09,106.75,203.78Z" transform="translate(0.2)"/><path class="cls-4" d="M114.31,209c-.68-5.92-1-8.88-1.71-14.79l2.42-.3c2.5,2.74,3.72,4.13,6.07,6.94a32.81,32.81,0,0,1,3.28,4.57l0,0c-.32-2-.48-3.78-.63-6.1l-.4-6.22,2.1-.16c.32,5.95.47,8.93.79,14.88l-2.08.16c-2.23-2.85-3.38-4.26-5.75-7a55,55,0,0,1-3.62-4.6l-.07,0c.32,1.85.56,3.62.82,6.08s.4,3.8.66,6.33Z" transform="translate(0.2)"/><path class="cls-4" d="M148.82,70.74a7.67,7.67,0,0,0-10.84,0L120.6,88.16a7.71,7.71,0,0,0-2.13,4c18.11-15.11,31-17.16,34.35-17.44Z" transform="translate(0.2)"/><path class="cls-4" d="M137.12,115.56a7.67,7.67,0,0,0,10.84,0l11.25-11.25c-5.71.15-20.29,1-28.21,5.17Z" transform="translate(0.2)"/><path class="cls-4" d="M165.11,87l-9.42-9.42a65.06,65.06,0,0,0-36.61,19.28A7.54,7.54,0,0,0,120.56,99l1.26,1.26C137,86.81,159.15,86.77,165.11,87Z" transform="translate(0.2)"/><path class="cls-4" d="M123.22,101.66l4.86,4.86c3.6-2.42,13.34-7,34.7-5.82l2.56-2.56a7.69,7.69,0,0,0,1.82-8C143,88.24,127.73,98.21,123.22,101.66Z" transform="translate(0.2)"/><path class="cls-4" d="M176.09,80.19,155.93,60a17.44,17.44,0,0,0-24.66,0L111.11,80.19a17.44,17.44,0,0,0,0,24.66L131.27,125a17.44,17.44,0,0,0,24.66,0l20.16-20.16A17.44,17.44,0,0,0,176.09,80.19Zm-2.92,22.37-19.08,19.07a14.82,14.82,0,0,1-21,0L114,102.45A13.8,13.8,0,0,1,114,83L134.31,62.6a13.16,13.16,0,0,1,18.61,0l20.25,20.24A14,14,0,0,1,173.17,102.56Z" transform="translate(0.2)"/><path class="cls-4" d="M120.5,124.05a3.19,3.19,0,0,1,0,4.68l-81-2.16Z" transform="translate(0.2)"/><path class="cls-4" d="M168.26,123.05a3.19,3.19,0,0,0,0,4.68l81-2.16Z" transform="translate(0.2)"/></svg>